contact_force_test_states
version=1
nRows=4
nColumns=61
inDegrees=yes

# SIMM Motion File Header:
name contact_force_test_states
datacolumns 61
datarows 4
otherdata 1
range 0.00968068 0.01096754
endheader
time	/jointset/ground_pelvis/pelvis_list/value	/jointset/ground_pelvis/pelvis_list/speed	/jointset/ground_pelvis/pelvis_rotation/value	/jointset/ground_pelvis/pelvis_rotation/speed	/jointset/ground_pelvis/pelvis_tilt/value	/jointset/ground_pelvis/pelvis_tilt/speed	/jointset/ground_pelvis/pelvis_tx/value	/jointset/ground_pelvis/pelvis_tx/speed	/jointset/ground_pelvis/pelvis_ty/value	/jointset/ground_pelvis/pelvis_ty/speed	/jointset/ground_pelvis/pelvis_tz/value	/jointset/ground_pelvis/pelvis_tz/speed	/jointset/hip_r/hip_adduction_r/value	/jointset/hip_r/hip_adduction_r/speed	/jointset/hip_r/hip_rotation_r/value	/jointset/hip_r/hip_rotation_r/speed	/jointset/hip_r/hip_flexion_r/value	/jointset/hip_r/hip_flexion_r/speed	/jointset/hip_l/hip_adduction_l/value	/jointset/hip_l/hip_adduction_l/speed	/jointset/hip_l/hip_rotation_l/value	/jointset/hip_l/hip_rotation_l/speed	/jointset/hip_l/hip_flexion_l/value	/jointset/hip_l/hip_flexion_l/speed	/jointset/knee_r/knee_flexion_r/value	/jointset/knee_r/knee_flexion_r/speed	/jointset/knee_l/knee_flexion_l/value	/jointset/knee_l/knee_flexion_l/speed	/jointset/ankle_r/ankle_dorsiflexion_r/value	/jointset/ankle_r/ankle_dorsiflexion_r/speed	/jointset/ankle_l/ankle_dorsiflexion_l/value	/jointset/ankle_l/ankle_dorsiflexion_l/speed	/forceset/hamstrings_r/activation	/forceset/hamstrings_r/fiber_length	/forceset/glut_max_r/activation	/forceset/glut_max_r/fiber_length	/forceset/ilipsoas_r/activation	/forceset/ilipsoas_r/fiber_length	/forceset/vasti_r/activation	/forceset/vasti_r/fiber_length	/forceset/gastroc_r/activation	/forceset/gastroc_r/fiber_length	/forceset/soleus_r/activation	/forceset/soleus_r/fiber_length	/forceset/tibia_r/activation	/forceset/tibia_r/fiber_length	/forceset/hamstrings_l/activation	/forceset/hamstrings_l/fiber_length	/forceset/glut_max_l/activation	/forceset/glut_max_l/fiber_length	/forceset/ilipsoas_l/activation	/forceset/ilipsoas_l/fiber_length	/forceset/vasti_l/activation	/forceset/vasti_l/fiber_length	/forceset/gastroc_l/activation	/forceset/gastroc_l/fiber_length	/forceset/soleus_l/activation	/forceset/soleus_l/fiber_length	/forceset/tibia_l/activation	/forceset/tibia_l/fiber_length
      0.00968068	      0.00000000	      0.00000000	     -0.00000000	     -0.00000000	      0.06915947	     13.45043354	      0.00025702	      0.05465241	      0.95257162	      0.44027101	     -0.00000000	     -0.00000000	     -0.00012008	     -0.01319922	      0.00191723	      0.02403749	     -0.04888644	    -15.09918508	      0.00012008	      0.01319922	     -0.00191723	     -0.02403749	     -0.04888644	    -15.09918508	     -0.17021308	    -11.45850283	     -0.17021308	    -11.45850283	      1.26364425	     81.47504816	      1.26364425	     81.47504816	      0.04355667	      0.10565601	      0.04355667	      0.09791065	      0.04355667	      0.10837141	      0.04355667	      0.09796717	      0.04355667	      0.07861810	      0.04355667	      0.06750699	      0.04355667	      0.09802051	      0.04355667	      0.10565601	      0.04355667	      0.09791065	      0.04355667	      0.10837141	      0.04355667	      0.09796717	      0.04355667	      0.07861810	      0.04355667	      0.06750699	      0.04355667	      0.09802051
      0.01012457	      0.00000000	      0.00000000	     -0.00000000	     -0.00000000	      0.07521694	     13.83951246	      0.00028166	      0.05636837	      0.95276916	      0.44965217	     -0.00000000	     -0.00000000	     -0.00012585	     -0.01280426	      0.00192953	      0.03141797	     -0.05572116	    -15.68997703	      0.00012585	      0.01280426	     -0.00192953	     -0.03141797	     -0.05572116	    -15.68997703	     -0.17523183	    -11.15983950	     -0.17523183	    -11.15983950	      1.29920698	     78.78596309	      1.29920698	     78.78596309	      0.04328437	      0.10568033	      0.04328437	      0.09782246	      0.04328437	      0.10838480	      0.04328437	      0.09787807	      0.04328437	      0.07823734	      0.04328437	      0.06707078	      0.04328437	      0.09793488	      0.04328437	      0.10568033	      0.04328437	      0.09782246	      0.04328437	      0.10838480	      0.04328437	      0.09787807	      0.04328437	      0.07823734	      0.04328437	      0.06707078	      0.04328437	      0.09793488
      0.01056845	      0.00000000	      0.00000000	     -0.00000000	     -0.00000000	      0.08144335	     14.21180094	      0.00030705	      0.05800485	      0.95297073	      0.45846541	     -0.00000000	      0.00000000	     -0.00013144	     -0.01239237	      0.00194514	      0.03892481	     -0.06281072	    -16.24783637	      0.00013144	      0.01239237	     -0.00194514	     -0.03892481	     -0.06281072	    -16.24783637	     -0.18012504	    -10.89225427	     -0.18012504	    -10.89225427	      1.33361593	     76.27860773	      1.33361593	     76.27860773	      0.04301396	      0.10570223	      0.04301396	      0.09773490	      0.04301396	      0.10839763	      0.04301396	      0.09778932	      0.04301396	      0.07787552	      0.04301396	      0.06666070	      0.04301396	      0.09784959	      0.04301396	      0.10570223	      0.04301396	      0.09773490	      0.04301396	      0.10839763	      0.04301396	      0.09778932	      0.04301396	      0.07787552	      0.04301396	      0.06666070	      0.04301396	      0.09784959
      0.01096754	      0.00000000	      0.00000000	     -0.00000000	     -0.00000000	      0.08717966	     14.53301631	      0.00033048	      0.05941223	      0.95315520	      0.46593283	     -0.00000000	     -0.00000000	     -0.00013631	     -0.01201120	      0.00196204	      0.04581944	     -0.06939069	    -16.72284945	      0.00013631	      0.01201120	     -0.00196204	     -0.04581944	     -0.06939069	    -16.72284945	     -0.18442834	    -10.67724132	     -0.18442834	    -10.67724132	      1.36363133	     74.15992485	      1.36363133	     74.15992485	      0.04277245	      0.10572011	      0.04277245	      0.09765672	      0.04277245	      0.10840876	      0.04277245	      0.09770982	      0.04277245	      0.07756514	      0.04277245	      0.06631232	      0.04277245	      0.09777320	      0.04277245	      0.10572011	      0.04277245	      0.09765672	      0.04277245	      0.10840876	      0.04277245	      0.09770982	      0.04277245	      0.07756514	      0.04277245	      0.06631232	      0.04277245	      0.09777320
